<svg width="50" height="49" viewBox="0 0 50 49" fill="none" xmlns="http://www.w3.org/2000/svg">
<path d="M47.7885 30.0688V27.96C47.7885 27.5682 47.471 27.2508 47.0793 27.2508C46.6877 27.2508 46.3701 27.5682 46.3701 27.96V30.0682H39.5619V23.7544C39.5619 22.8039 38.7887 22.0306 37.8382 22.0306H34.7215V15.2224H40.7156C43.8335 15.2224 46.3701 17.759 46.3701 20.877V24.6504C46.3701 25.0421 46.6877 25.3596 47.0793 25.3596C47.471 25.3596 47.7885 25.0421 47.7885 24.6504V20.877C47.7885 16.9769 44.6156 13.804 40.7156 13.804H34.5419C34.0742 12.3921 32.7423 11.3702 31.1756 11.3702H28.824V8.68436C29.7886 8.64181 30.5878 7.95409 30.8006 7.04311H37.9072C39.2394 7.04898 40.3657 5.91891 40.3657 4.5846C40.3657 3.22901 39.2628 2.12609 37.9072 2.12609H30.8005C30.5807 1.18552 29.7357 0.482666 28.7292 0.482666H24.1075C23.101 0.482666 22.256 1.18552 22.0362 2.12609H14.9295C13.5839 2.1189 12.471 3.24348 12.471 4.5846C12.471 5.94019 13.574 7.04311 14.9295 7.04311H22.0362C22.2489 7.95409 23.0481 8.64181 24.0127 8.68436V11.3702H21.6611C20.0943 11.3702 18.7626 12.3921 18.2949 13.804H12.9637C12.6709 12.9786 11.8827 12.3857 10.9582 12.3857C10.0337 12.3857 9.24546 12.9786 8.95271 13.804H1.50228C1.11062 13.804 0.793091 14.1216 0.793091 14.5132C0.793091 14.9049 1.11062 15.2224 1.50228 15.2224H8.83054V22.0306H1.50228C1.11062 22.0306 0.793091 22.3481 0.793091 22.7398C0.793091 23.1314 1.11062 23.449 1.50228 23.449H8.95252C9.24527 24.2745 10.0335 24.8674 10.9581 24.8674C11.8827 24.8674 12.671 24.2745 12.9637 23.449H18.2947C18.7623 24.8611 20.0941 25.8831 21.661 25.8831H22.8601C23.2518 25.8831 23.5693 25.5656 23.5693 25.1739C23.5693 24.7822 23.2518 24.4647 22.8601 24.4647H21.6611C20.5992 24.4647 19.7167 23.6827 19.5588 22.6644C19.5585 22.6618 19.558 22.6593 19.5577 22.6567C19.5865 22.5264 19.5289 14.8436 19.5579 14.5948C19.5581 14.5933 19.5584 14.5919 19.5585 14.5904C19.7158 13.5713 20.5988 12.7886 21.6611 12.7886H31.1756C32.238 12.7886 33.1209 13.5713 33.2782 14.5904C33.2784 14.5919 33.2787 14.5933 33.2788 14.5948C33.3886 15.5385 33.3746 21.8297 33.279 22.6567C33.2787 22.6593 33.2781 22.6619 33.2779 22.6644C33.12 23.6827 32.2375 24.4647 31.1756 24.4647H26.1698C25.7781 24.4647 25.4606 24.7822 25.4606 25.1739C25.4606 25.5656 25.7781 25.8831 26.1698 25.8831H31.1756C32.7425 25.8831 34.0744 24.8611 34.542 23.449H37.8382C38.0066 23.449 38.1436 23.586 38.1436 23.7544V30.0688C37.3604 30.0749 36.7252 30.7134 36.7252 31.4978V32.8936C36.7252 33.6819 37.3666 34.3233 38.1549 34.3233H47.7772C48.5655 34.3233 49.2069 33.6819 49.2069 32.8936V31.4978C49.2069 30.7134 48.5716 30.0749 47.7885 30.0688ZM30.8567 3.54446H37.9072C38.4807 3.54446 38.9473 4.0111 38.9473 4.5846C38.9473 5.14741 38.4724 5.62758 37.9072 5.62474H30.8567V3.54446ZM21.98 5.62474H14.9295C14.356 5.62474 13.8894 5.1581 13.8894 4.5846C13.8894 4.01857 14.3627 3.54191 14.9295 3.54446H21.98V5.62474ZM11.6673 22.7399C11.6673 23.131 11.3492 23.4491 10.9581 23.4491C10.567 23.4491 10.2489 23.131 10.2489 22.7399V14.5133C10.2489 14.1222 10.567 13.8041 10.9581 13.8041C11.3492 13.8041 11.6673 14.1222 11.6673 14.5133V22.7399ZM18.1152 22.0306H13.0857V15.2224H18.1152V22.0306ZM27.4056 11.3702H25.4311V8.68682H27.4056V11.3702ZM24.1075 7.26845C23.7165 7.26845 23.3984 6.95035 23.3984 6.55926V2.61023C23.3984 2.21913 23.7165 1.90104 24.1075 1.90104H28.7292C29.1203 1.90104 29.4384 2.21913 29.4384 2.61023V6.55926C29.4384 6.95035 29.1203 7.26845 28.7292 7.26845H24.1075ZM47.7885 32.8936C47.7885 32.8999 47.7834 32.905 47.7772 32.905H38.1549C38.1487 32.905 38.1436 32.8999 38.1436 32.8936V31.4978C38.1436 31.4917 38.1487 31.4866 38.1549 31.4866H47.7772C47.7834 31.4866 47.7885 31.4917 47.7885 31.4978V32.8936ZM43.6637 36.7771C43.2789 36.3969 42.6531 36.3969 42.2685 36.7769C40.9295 38.0995 37.8153 41.4263 37.8153 43.7475C37.8153 46.5866 40.1259 48.8965 42.966 48.8965C45.8062 48.8965 48.1168 46.5866 48.1168 43.7475C48.1168 41.4263 45.0025 38.0995 43.6637 36.7771ZM42.966 47.4781C40.908 47.4781 39.2336 45.8046 39.2336 43.7475C39.2336 42.8658 40.2185 40.8686 42.966 38.0852C45.7139 40.8687 46.6984 42.8657 46.6984 43.7475C46.6984 45.8046 45.0241 47.4781 42.966 47.4781Z" fill="white"/>
</svg>
