<svg width="42" height="46" viewBox="0 0 42 46" fill="none" xmlns="http://www.w3.org/2000/svg">
<path d="M39.6224 11.6765H39.1648C38.8943 10.7264 38.5164 9.81483 38.036 8.95301L38.3613 8.62765C38.7334 8.25564 38.9383 7.75949 38.9383 7.23053C38.9383 6.70157 38.7334 6.20551 38.361 5.83306L36.1937 3.66829C35.8215 3.29382 35.3247 3.08767 34.7948 3.08767C34.265 3.08767 33.7681 3.29382 33.3978 3.66644L33.0728 3.99136C32.2104 3.50949 31.2985 3.13087 30.349 2.86044V2.4029C30.3491 1.31307 29.4625 0.426392 28.3726 0.426392H25.3084C24.2186 0.426392 23.3319 1.31307 23.3319 2.4029V2.86044C22.3826 3.13078 21.4702 3.50949 20.606 3.99172L20.2826 3.66829C19.9102 3.29382 19.4134 3.08767 18.8836 3.08775C18.3537 3.08775 17.857 3.29399 17.4866 3.66653L15.3198 5.8335C14.9476 6.20551 14.7427 6.70166 14.7427 7.23062C14.7427 7.75958 14.9476 8.25564 15.3197 8.62765L15.6449 8.95293C15.1625 9.81739 14.7844 10.7291 14.5153 11.6765H14.056C12.9662 11.6765 12.0795 12.5631 12.0795 13.653V16.7198C12.0795 17.8097 12.9662 18.6964 14.056 18.6964H14.5153C14.7844 19.6436 15.1625 20.5553 15.6449 21.4199L15.3197 21.7452C14.9475 22.1172 14.7427 22.6133 14.7427 23.1423C14.7427 23.6711 14.9475 24.1673 15.3196 24.5393L17.4848 26.7045C17.857 27.079 18.3537 27.2851 18.8835 27.2851H18.8836C19.4134 27.2851 19.9103 27.079 20.2807 26.7064L20.6059 26.3811C21.471 26.8638 22.3834 27.2419 23.3318 27.5109V27.97C23.3318 29.0598 24.2185 29.9465 25.3083 29.9465H28.3725C29.4624 29.9465 30.349 29.0598 30.349 27.97V27.5109C31.2977 27.2418 32.2094 26.8638 33.0728 26.3814L33.3959 26.7045C33.7681 27.079 34.2649 27.2851 34.7947 27.2851C35.3246 27.2851 35.8215 27.0789 36.1915 26.7067L38.3613 24.5393C38.7334 24.1672 38.9382 23.6711 38.9382 23.1422C38.9382 22.6132 38.7334 22.1172 38.3613 21.7452L38.0359 21.4198C38.5163 20.558 38.8941 19.6464 39.1647 18.6964H39.6223C40.7122 18.6964 41.5988 17.8097 41.5988 16.7198V13.653C41.5989 12.5631 40.7123 11.6765 39.6224 11.6765ZM28.5857 27.9699C28.5857 28.0854 28.4881 28.1829 28.3726 28.1829H25.3084C25.1929 28.1829 25.0954 28.0854 25.0954 27.9699V26.8251V21.2664C25.0954 20.8976 24.8659 20.5679 24.5203 20.4396C22.1509 19.5609 20.559 17.2805 20.559 14.7653C20.559 12.7719 21.5516 10.9033 23.2136 9.76721C23.2882 9.71625 23.3542 9.67463 23.4119 9.64051C23.4087 9.75513 23.4006 9.86412 23.3962 9.92099C23.3896 10.0105 23.3843 10.0811 23.3843 10.1512V14.3128C23.3843 16.2229 24.8769 17.8181 26.782 17.9445C26.8209 17.947 26.8599 17.947 26.8988 17.9445C28.8026 17.8182 30.294 16.223 30.294 14.3128V10.1512C30.294 10.0815 30.2888 10.0113 30.2823 9.92231C30.2781 9.86518 30.27 9.75558 30.2669 9.64042C30.3244 9.67446 30.39 9.71599 30.4643 9.76686C32.1268 10.9033 33.1194 12.7718 33.1194 14.7652C33.1194 17.2802 31.5284 19.5606 29.1604 20.4396C28.8148 20.5679 28.5855 20.8976 28.5855 21.2663V26.825V27.9699H28.5857ZM39.8354 16.7198C39.8354 16.8333 39.7359 16.9329 39.6224 16.9329H38.4802C38.0683 16.9329 37.7112 17.2181 37.6202 17.6199C37.341 18.8537 36.8574 20.0205 36.1827 21.0876C35.9625 21.4361 36.0131 21.8907 36.3046 22.1822L37.1145 22.9921C37.167 23.0447 37.1749 23.1087 37.1749 23.1422C37.1749 23.1756 37.167 23.2397 37.1147 23.2919L34.9431 25.4612C34.8935 25.5111 34.835 25.5216 34.7948 25.5216C34.7547 25.5216 34.6963 25.5111 34.6448 25.4592L33.8349 24.6493C33.543 24.3575 33.0879 24.3072 32.7395 24.528C31.9868 25.005 31.1856 25.3834 30.3491 25.6631V21.8528C33.0847 20.5798 34.8831 17.8055 34.8831 14.7651C34.8831 12.1889 33.6032 9.77612 31.4597 8.31093C31.1313 8.08653 30.1328 7.40379 29.2594 7.90647C28.4018 8.40025 28.4873 9.55771 28.5237 10.052C28.5268 10.095 28.5299 10.131 28.5306 10.1512V14.3128C28.5306 15.2779 27.793 16.0871 26.8405 16.1801C25.8867 16.087 25.1479 15.2778 25.1479 14.3128L25.1478 10.1576C25.1486 10.131 25.1518 10.095 25.155 10.0518C25.1917 9.5578 25.2779 8.40096 24.421 7.90691C23.548 7.40335 22.5479 8.08635 22.2189 8.31093C20.0753 9.77621 18.7955 12.189 18.7955 14.7652C18.7955 17.8061 20.5949 20.5805 23.3319 21.8532V25.6632C22.4952 25.3835 21.6931 25.0049 20.9382 24.5277C20.7931 24.436 20.6298 24.3913 20.4673 24.3913C20.2395 24.3913 20.0136 24.4793 19.8435 24.6495L19.032 25.4612C18.9823 25.5112 18.9239 25.5217 18.8837 25.5217C18.8435 25.5217 18.7852 25.5112 18.7337 25.4594L16.5667 23.2923C16.5141 23.2398 16.5062 23.1757 16.5062 23.1423C16.5062 23.1088 16.5141 23.0448 16.5667 22.9921L17.3765 22.1822C17.668 21.8907 17.7186 21.4361 17.4984 21.0876C16.8203 20.0148 16.3368 18.8486 16.0612 17.6214C15.9709 17.2189 15.6135 16.9328 15.2009 16.9328H14.0562C13.9427 16.9328 13.8432 16.8332 13.8432 16.7198V13.6529C13.8432 13.5374 13.9407 13.4398 14.0562 13.4398H15.2009C15.6135 13.4398 15.9708 13.1537 16.0612 12.7512C16.3368 11.524 16.8202 10.3577 17.4984 9.28499C17.7186 8.93653 17.668 8.4819 17.3765 8.1904L16.5666 7.38051C16.5141 7.32796 16.5062 7.26395 16.5062 7.23044C16.5062 7.19694 16.5141 7.13292 16.5667 7.08028L18.7355 4.91137C18.7852 4.86147 18.8435 4.85097 18.8838 4.85097C18.924 4.85097 18.9823 4.86147 19.0338 4.91322L19.8436 5.7231C20.1353 6.0147 20.5899 6.06522 20.9383 5.84496C22.0097 5.16761 23.1772 4.68309 24.408 4.40508C24.8101 4.31426 25.0955 3.95706 25.0955 3.54503V2.4029C25.0955 2.2874 25.1931 2.18988 25.3086 2.18988H28.3728C28.4883 2.18988 28.5858 2.2874 28.5858 2.4029V3.5452C28.5858 3.95733 28.8713 4.31443 29.2732 4.40525C30.5052 4.68353 31.6714 5.16778 32.7396 5.8447C33.0882 6.06549 33.5432 6.01523 33.8351 5.72337L34.6467 4.91164C34.6964 4.86173 34.7548 4.85124 34.795 4.85124C34.8352 4.85124 34.8935 4.86173 34.9454 4.91384L37.1147 7.08055C37.1672 7.1331 37.1751 7.19711 37.1751 7.23062C37.1751 7.26412 37.1672 7.32814 37.1146 7.38078L36.3048 8.19066C36.0133 8.48216 35.9627 8.93679 36.1829 9.28525C36.8575 10.3524 37.3412 11.5191 37.6204 12.753C37.7113 13.1548 38.0684 13.44 38.4804 13.44H39.6226C39.7381 13.44 39.8356 13.5375 39.8356 13.6531V16.7198H39.8354Z" fill="white"/>
<path d="M31.9782 39.2513C31.6338 39.5956 31.6338 40.154 31.9782 40.4984C32.1504 40.6705 32.376 40.7567 32.6017 40.7567C32.8273 40.7567 33.0529 40.6705 33.2251 40.4984L33.2276 40.4959C33.5719 40.1516 33.5707 39.5945 33.2263 39.2502C32.8819 38.9058 32.3225 38.9072 31.9782 39.2513Z" fill="white"/>
<path d="M36.0629 30.7098L29.0627 34.3048C28.4692 33.6902 27.6378 33.3068 26.718 33.3068H21.9217C21.6531 33.3068 21.5875 33.2855 21.5831 33.284C21.5442 33.2635 21.4213 33.148 21.3226 33.0553L21.2789 33.0142C17.3985 29.3614 14.1207 29.5928 10.3931 31.0639C9.78998 31.302 9.77834 31.3025 9.17267 31.3284L8.08813 31.3292C7.77917 30.3971 6.8999 29.7225 5.86552 29.7225H2.33891C1.04918 29.7225 0 30.773 0 32.064V41.3196C0 42.6092 1.04918 43.6585 2.33891 43.6585H5.86552C6.89981 43.6585 7.77899 42.9847 8.08804 42.0538H10.072C10.2472 42.0538 10.2472 42.0538 10.4509 42.1112C10.525 42.1321 10.6151 42.1575 10.7315 42.1888L19.857 44.6301C20.2593 44.7388 20.6282 44.8457 20.985 44.9491C22.1542 45.2878 23.137 45.5726 24.1613 45.5726C25.319 45.5726 26.5296 45.2088 28.1217 44.1477C28.1294 44.1426 28.1371 44.1373 28.1447 44.132L29.8868 42.8897C30.2833 42.6069 30.3756 42.0563 30.0928 41.6598C29.81 41.2632 29.2593 41.1711 28.863 41.4538L27.1324 42.6878C24.8219 44.2246 23.8408 43.9405 21.4758 43.2552C21.1115 43.1497 20.7348 43.0405 20.315 42.9272L11.1888 40.4857C11.0819 40.457 10.9981 40.4333 10.9293 40.4139C10.5963 40.3201 10.4718 40.2905 10.0721 40.2905H8.20699V33.0933H9.15989C9.17259 33.0933 9.18511 33.0931 9.1978 33.0926L9.24806 33.0904C9.98723 33.0589 10.194 33.0387 11.0406 32.7044C14.3145 31.4125 16.8415 31.259 20.0714 34.2995L20.115 34.3405C20.667 34.8592 20.9848 35.0705 21.9218 35.0705H26.7181C27.281 35.0705 27.7719 35.383 28.0278 35.8433C28.0305 35.8484 28.0337 35.8533 28.0365 35.8584C28.1508 36.0698 28.2158 36.3115 28.2158 36.5683C28.2158 37.3928 27.544 38.0636 26.7182 38.0636H18.945C18.4581 38.0636 18.0633 38.4583 18.0633 38.9453C18.0633 39.4323 18.4581 39.827 18.945 39.827H26.7182C28.5164 39.827 29.9793 38.3652 29.9793 36.5683C29.9793 36.324 29.9515 36.0863 29.9003 35.8573L36.8685 32.2788C37.5281 31.9402 38.4299 31.9765 38.8777 32.7031C39.2738 33.3435 39.0559 34.1947 38.3712 34.6829L35.3145 36.8599C34.9178 37.1424 34.8252 37.693 35.1077 38.0897C35.2797 38.3312 35.5511 38.46 35.8267 38.46C36.0036 38.46 36.1823 38.4068 36.3374 38.2964L39.3945 36.1191C40.8463 35.0841 41.2689 33.2167 40.3781 31.7767C39.5022 30.3552 37.6472 29.8965 36.0629 30.7098ZM6.44342 41.3196C6.44342 41.6315 6.17881 41.895 5.86552 41.895H2.33891C2.02695 41.895 1.76348 41.6314 1.76348 41.3196V32.0641C1.76348 31.7454 2.02166 31.4861 2.33891 31.4861H5.86552C6.17881 31.4861 6.44342 31.7507 6.44342 32.0641V41.3196Z" fill="white"/>
</svg>
