<svg width="47" height="48" viewBox="0 0 47 48" fill="none" xmlns="http://www.w3.org/2000/svg">
<path d="M45.3134 3.68401H40.7084C40.1997 3.68401 39.7874 4.09635 39.7874 4.60502V5.06552H37.0243C36.678 5.06552 36.3767 5.2569 36.2194 5.53947C27.8728 5.86661 21.1831 12.7577 21.1831 21.1831V22.1041H20.7226C20.2139 22.1041 19.8016 22.5164 19.8016 23.0251V26.7091C19.8016 27.2178 20.2139 27.6301 20.7226 27.6301H21.1831V31.0378C21.1831 31.898 20.8478 32.7067 20.2391 33.3173C19.6293 33.9252 18.8198 34.2613 17.9596 34.2613C17.0994 34.2613 16.2898 33.9252 15.6801 33.3173C15.0713 32.7067 14.7361 31.898 14.7361 31.0378V27.6301H15.1966C15.7052 27.6301 16.1176 27.2178 16.1176 26.7091V23.0251C16.1176 22.5164 15.7052 22.1041 15.1966 22.1041H14.7361V10.0068C15.0111 9.84746 15.1966 9.55071 15.1966 9.21004V6.44702H15.6571C16.1657 6.44702 16.5781 6.03469 16.5781 5.52602V0.921004C16.5781 0.412333 16.1657 0 15.6571 0H0.921004C0.412333 0 0 0.412333 0 0.921004V5.52602C0 6.03469 0.412333 6.44702 0.921004 6.44702H1.38151V9.21004C1.38151 9.55071 1.567 9.84755 1.84201 10.0068V22.1041H1.38151C0.872835 22.1041 0.460502 22.5164 0.460502 23.0251V26.7091C0.460502 27.2178 0.872835 27.6301 1.38151 27.6301H1.84201V31.0378C1.84201 33.2141 2.26843 35.3242 3.10839 37.3117C3.51271 38.2668 4.01281 39.1878 4.59489 40.0489C5.17143 40.9027 5.83364 41.7049 6.56307 42.4343C7.29251 43.1637 8.0947 43.826 8.94847 44.4025C9.80961 44.9846 10.7306 45.4847 11.6857 45.889C13.6732 46.729 15.7828 47.1554 17.9591 47.1554L17.9596 47.1508V47.1545V47.1554C19.1569 47.1554 20.2911 47.0301 21.4221 46.7824C22.5218 46.5411 23.5996 46.1828 24.6256 45.7159C25.6323 45.2581 26.5966 44.6926 27.4909 44.0369C28.3779 43.3848 29.2013 42.6406 29.9372 41.8228C30.2771 41.4452 30.2467 40.8622 29.8692 40.5223C29.6997 40.3694 29.4814 40.2856 29.253 40.2856C28.9924 40.2856 28.7429 40.3961 28.5687 40.5895C25.8627 43.5911 21.9963 45.3134 17.9596 45.3134C14.1475 45.3134 10.563 43.8278 7.86537 41.132C5.16959 38.4344 3.68401 34.8499 3.68401 31.0378V27.6301H12.894V31.0378C12.894 31.7221 13.0285 32.3852 13.2919 33.0097C13.547 33.6129 13.9127 34.1545 14.3778 34.6196C14.8429 35.0847 15.3844 35.4494 15.9877 35.7055C16.6121 35.9689 17.2753 36.1033 17.9596 36.1033C18.6439 36.1033 19.307 35.9689 19.9314 35.7055C20.5347 35.4494 21.0762 35.0847 21.5414 34.6196C22.0065 34.1545 22.3721 33.6129 22.6272 33.0097C22.8906 32.3852 23.0251 31.7221 23.0251 31.0378V27.6301H32.2351V31.0378C32.2351 31.934 32.1513 32.831 31.9865 33.705C31.9404 33.9473 31.992 34.1923 32.1311 34.3949C32.2692 34.5984 32.4792 34.7356 32.7205 34.7808C32.7776 34.7918 32.8356 34.7974 32.8927 34.7974C33.3339 34.7974 33.7143 34.4815 33.7962 34.0467C33.9823 33.0613 34.0771 32.0491 34.0771 31.0378V27.6301H34.5376C35.0463 27.6301 35.4586 27.2178 35.4586 26.7091V23.0251C35.4586 22.5164 35.0463 22.1041 34.5376 22.1041H34.0771V21.3673C34.0771 19.9958 35.0187 18.8402 36.2893 18.5129C36.4574 18.7359 36.7236 18.8806 37.0243 18.8806H39.7874V19.3411C39.7874 19.8497 40.1997 20.2621 40.7084 20.2621H45.3134C45.822 20.2621 46.2344 19.8497 46.2344 19.3411V4.60502C46.2344 4.09635 45.822 3.68401 45.3134 3.68401ZM14.2756 25.7881H2.30251V23.9461H14.2756V25.7881ZM12.894 10.131V22.1041H3.68401V10.131H12.894ZM6.90753 8.28903V6.44702H9.67054V8.28903H6.90753ZM11.5125 8.28903V6.44702H13.3546V8.28903H11.5125ZM5.06552 8.28903H3.22351V6.44702H5.06552V8.28903ZM1.84201 4.60502V1.84201H14.7361V4.60502H1.84201ZM33.6166 25.7881H21.6436V23.9461H33.6166V25.7881ZM36.1033 16.6669C33.9017 17.0975 32.2351 19.0415 32.2351 21.3673V22.1041H23.0251V21.1831C23.0251 13.8128 28.8271 7.77198 36.1033 7.38746V16.6669ZM39.7874 17.0386H37.9453V15.1966H39.7874V17.0386ZM39.7874 13.3546H37.9453V10.5915H39.7874V13.3546ZM39.7874 8.74953H37.9453V6.90753H39.7874V8.74953ZM44.3924 18.4201H41.6294V5.52602H44.3924V18.4201Z" fill="white"/>
<path d="M9.25242 36.9995C9.08111 36.7453 8.7956 36.5942 8.48891 36.5942C8.30471 36.5942 8.12696 36.6486 7.97407 36.7517C7.77053 36.8899 7.63238 37.0989 7.5854 37.3403C7.53843 37.5816 7.58909 37.8265 7.72632 38.031C9.39057 40.4938 11.88 42.275 14.737 43.0459C14.8162 43.0671 14.8973 43.0781 14.9774 43.0781C15.3928 43.0781 15.7584 42.7981 15.8661 42.3966C15.9988 41.9066 15.7077 41.4 15.2168 41.2674C12.7872 40.6126 10.6689 39.0966 9.25242 36.9995Z" fill="white"/>
<path d="M26.5045 15.2713C26.2549 15.7145 26.4119 16.2761 26.8552 16.5257C26.998 16.6062 27.1532 16.6444 27.3062 16.6444C27.628 16.6444 27.9404 16.4755 28.1096 16.1751C28.2031 16.009 28.3028 15.8431 28.4058 15.6821C29.3655 14.1818 30.705 12.952 32.2792 12.1254C32.7296 11.889 32.903 11.3321 32.6666 10.8818C32.4301 10.4315 31.8732 10.2581 31.4231 10.4945C29.5659 11.4695 27.9861 12.9201 26.8541 14.6895C26.7326 14.8795 26.615 15.0752 26.5045 15.2713Z" fill="white"/>
<path d="M31.5762 38.7126C32.0848 38.7126 32.4972 38.3003 32.4972 37.7916C32.4972 37.283 32.0848 36.8706 31.5762 36.8706C31.0675 36.8706 30.6552 37.283 30.6552 37.7916C30.6552 38.3003 31.0675 38.7126 31.5762 38.7126Z" fill="white"/>
</svg>
